<?xml version="1.0" encoding="UTF-8"?> <svg xmlns="http://www.w3.org/2000/svg" id="ab5b70d8-ce35-4127-8b5c-ff967efedbd1" data-name="Forward AM Logo" viewBox="0 0 907.09 226.77"><title>ForwardAM_Logo_RGB</title><rect width="907.09" height="226.78" style="fill:#21a0d2"></rect><rect x="451.65" y="28.35" width="3.78" height="170.08" style="fill:#fff"></rect><path d="M791.07,109.53c0-4.68-.21-5.46-.78-6.24a3.75,3.75,0,0,0-3.43-1.56h-3.15v15.61h3.15a3.77,3.77,0,0,0,3.43-1.56c.57-.78.78-1.52.78-6.25m7.15,0c0,4.38.37,7.93-3,11.17a11.13,11.13,0,0,1-7.84,2.73H776.56V95.64h10.79a11.13,11.13,0,0,1,7.84,2.73c3.4,3.24,3,6.79,3,11.16m-34.81-5a2.88,2.88,0,0,0-3.1-2.81h-4v5.62h4a2.88,2.88,0,0,0,3.1-2.81m.41,18.85-5.15-10.34h-2.41v10.34h-7.15V95.64h11.52c6.46,0,9.94,4.37,9.94,8.94a8,8,0,0,1-4.74,7.26l6.29,11.59Zm-32-17.25-2.61,7.41h5.07Zm5.69,17.25-1.35-4.14h-9l-1.43,4.14h-7.47L728.9,95.64h5.52L745,123.43Zm-26.25,0h-5.85l-4.7-13.7-4.7,13.7h-5.8l-8-27.79h7.48l3.8,14.67,4.7-14.67h5.07l4.7,14.67,3.8-14.67h7.48Zm-38.94-18.85a2.89,2.89,0,0,0-3.11-2.81h-4.05v5.62h4.05a2.89,2.89,0,0,0,3.11-2.81m.41,18.85-5.15-10.34h-2.42v10.34H658V95.64h11.53c6.46,0,9.93,4.37,9.93,8.94a8,8,0,0,1-4.74,7.26L681,123.43Zm-27.49-13.9c0-5.07-.4-6-1.06-6.83a4,4,0,0,0-5.72,0c-.65.83-1.06,1.76-1.06,6.83s.41,6,1.06,6.8a3.92,3.92,0,0,0,5.72,0c.66-.82,1.06-1.72,1.06-6.8m7.16,0c0,4.18.12,8.08-2.94,11a12.17,12.17,0,0,1-16.27,0c-3.07-2.93-3-6.83-3-11s-.12-8.07,3-11a12.17,12.17,0,0,1,16.27,0c3.06,2.93,2.94,6.83,2.94,11m-38.91-7.8v4.88H624.3v6.08H613.51v10.74h-7.15V95.64h19.78v6.09Z" style="fill:#fff"></path><path d="M818.52,107.58,820,112h-3Zm-8,10.22h4.43l.84-2.45h5.3l.8,2.45h4.43L820,101.35h-3.26ZM836,108.6l-3.87-7.25H828V117.8h4.24v-7.88l2.44,4.07h2.71l2.45-4.07v7.88h4.23V101.35h-4.16Zm-30.22-13h44.59v27.87H805.8Z" style="fill:#fff"></path><polygon points="549.46 126.93 528.29 126.93 521.89 142.55 543.06 142.55 549.46 126.93" style="fill:#fff"></polygon><polygon points="538.61 101.73 545.01 86.11 565.61 86.14 564.61 81.34 580.14 81.33 592.96 101.76 538.61 101.73" style="fill:#fff"></polygon><polygon points="563.19 126.84 565 122.11 510.24 122.11 510.24 122.11 516.58 106.57 592.12 106.58 579.4 126.93 563.19 126.84" style="fill:#fff"></polygon><path d="M847.75,138.48c0-1-.14-2-1.33-2s-1.31,1-1.31,2,.12,2,1.31,2,1.33-1,1.33-2m2,3.78c0,1.84-1.38,3.18-3.54,3.18a3.84,3.84,0,0,1-2.92-1l1.25-1.21a2.07,2.07,0,0,0,1.57.59,1.49,1.49,0,0,0,1.63-1.59v-.78a2.42,2.42,0,0,1-1.92.76,2.79,2.79,0,0,1-1.92-.67c-.75-.73-.81-1.72-.81-3.06s.06-2.31.81-3a2.8,2.8,0,0,1,1.93-.68,2.42,2.42,0,0,1,2,.82v-.73h2v7.41m-10.48.28v-4.65a1.34,1.34,0,1,0-2.67,0v4.65h-2v-7.69h2v.71a2.84,2.84,0,0,1,2-.8,2.68,2.68,0,0,1,1.9.68,2.79,2.79,0,0,1,.82,2.19v4.91Zm-6.81,0h-2v-7.69h2Zm0-9h-2.06V132h2.06ZM827.63,137a1.37,1.37,0,0,0-1.07-.46,1.3,1.3,0,0,0-1.3,1.42v4.63h-2v-7.69h2v.74a2.77,2.77,0,0,1,2-.83,2.46,2.46,0,0,1,1.9.73Zm-8.49,5.59v-.71a2.84,2.84,0,0,1-2,.8,2.68,2.68,0,0,1-1.9-.68,2.77,2.77,0,0,1-.82-2.18v-4.92h2v4.65a1.34,1.34,0,1,0,2.67,0v-4.65h2v7.69Zm-7.46,0a2.13,2.13,0,0,1-2.33-2.2v-3.81h-.85v-1.46h.85V132.8h2v2.27h1.42v1.46h-1.42v3.69a.61.61,0,0,0,.69.69h.73v1.63Zm-4.38-1a3.53,3.53,0,0,1-2.66,1c-1.6,0-3.6-.83-3.6-3.94s2-3.93,3.6-3.93a3.52,3.52,0,0,1,2.66,1l-1.36,1.29a1.68,1.68,0,0,0-1.3-.6,1.4,1.4,0,0,0-1.14.5,2.53,2.53,0,0,0-.45,1.7,2.56,2.56,0,0,0,.45,1.71,1.4,1.4,0,0,0,1.14.5,1.68,1.68,0,0,0,1.3-.6l1.36,1.28m-10-2.29h-1.59c-.72,0-1.12.33-1.12.87s.37.89,1.16.89a1.65,1.65,0,0,0,1.26-.37,1.2,1.2,0,0,0,.29-1Zm0,3.25v-.67a2.5,2.5,0,0,1-2,.74,2.8,2.8,0,0,1-2-.68,2.4,2.4,0,0,1-.67-1.72c0-1.23.88-2.23,2.75-2.23h1.9v-.38c0-.85-.43-1.21-1.49-1.21a1.77,1.77,0,0,0-1.55.63L793,135.83a3.46,3.46,0,0,1,2.9-1.07c2.26,0,3.43.92,3.43,2.72v5.06Zm-7.24-6v6h-2v-6h-.84v-1.46h.84v-1a2.14,2.14,0,0,1,2.34-2.19h1.15v1.62h-.79a.61.61,0,0,0-.69.69v.84h1.48v1.46Zm-6.42,6v-.71a2.83,2.83,0,0,1-2,.8,2.68,2.68,0,0,1-1.9-.68,2.77,2.77,0,0,1-.82-2.18v-4.92h2v4.65a1.26,1.26,0,0,0,1.33,1.4,1.28,1.28,0,0,0,1.35-1.4v-4.65h2v7.69Zm-8.73,0v-4.65a1.34,1.34,0,1,0-2.68,0v4.65h-2v-7.69h2v.71a2.81,2.81,0,0,1,2-.8,2.68,2.68,0,0,1,1.9.68,2.79,2.79,0,0,1,.82,2.19v4.91Zm-8.79-3.25H764.6c-.73,0-1.13.33-1.13.87s.38.89,1.16.89a1.67,1.67,0,0,0,1.27-.37,1.24,1.24,0,0,0,.29-1Zm0,3.25v-.67a2.5,2.5,0,0,1-2,.74,2.79,2.79,0,0,1-2-.68,2.36,2.36,0,0,1-.67-1.72c0-1.23.88-2.23,2.75-2.23h1.9v-.38c0-.85-.43-1.21-1.5-1.21a1.75,1.75,0,0,0-1.54.63l-1.28-1.19a3.45,3.45,0,0,1,2.9-1.07c2.26,0,3.43.92,3.43,2.72v5.06Zm-8.62,0v-6.12l-2.1,4h-1.45l-2.11-4v6.12h-2.15V132h2.11l2.88,5.68,2.86-5.68h2.11v10.51ZM739.74,138a2,2,0,0,0-.19-.83,1.4,1.4,0,0,0-1.34-.79,1.42,1.42,0,0,0-1.35.79,2.2,2.2,0,0,0-.18.83h3.06m-3.06,1.31a1.62,1.62,0,0,0,1.76,1.71,2.26,2.26,0,0,0,1.82-.72l1.22,1.14a3.91,3.91,0,0,1-3.05,1.21c-1.91,0-3.73-.83-3.73-3.94,0-2.51,1.42-3.93,3.51-3.93a3.38,3.38,0,0,1,3.51,3.68v.85Zm-5.58,3.25h-1.58l-3-7.69h2.12l1.64,4.75,1.62-4.75h2.12Zm-5.87,0h-2v-7.69h2Zm0-9h-2.06V132h2.06Zm-4.87,9a2.14,2.14,0,0,1-2.33-2.2v-3.81h-.85v-1.46h.85V132.8h2v2.27h1.42v1.46h-1.42v3.69a.61.61,0,0,0,.69.69h.73v1.63Zm-4.7,0h-2v-7.69h2Zm0-9h-2.06V132h2.06Zm-6.19,5.15c0-1.26-.17-2.2-1.38-2.2s-1.36.94-1.36,2.2.16,2.21,1.36,2.21,1.38-1,1.38-2.21m0,3.85v-.73a2.46,2.46,0,0,1-2,.82,2.92,2.92,0,0,1-2-.7c-.8-.76-.81-2.09-.81-3.24s0-2.47.81-3.23a2.89,2.89,0,0,1,2-.7,2.49,2.49,0,0,1,2,.77V132h2v10.51Zm-8.7-3.85c0-1.26-.17-2.2-1.37-2.2s-1.36.94-1.36,2.2.15,2.21,1.36,2.21,1.37-1,1.37-2.21m0,3.85v-.73a2.5,2.5,0,0,1-2,.82,2.89,2.89,0,0,1-2-.7c-.81-.76-.82-2.09-.82-3.24s0-2.47.82-3.23a2.85,2.85,0,0,1,2-.7,2.47,2.47,0,0,1,2,.77V132h2v10.51Zm-10.47-7.41L689,139h2.74Zm2.57,7.41-.65-1.86h-3.91l-.67,1.86h-2.23l4-10.51h1.68l4,10.51Zm-16.76-4.06c0-1-.14-2-1.33-2s-1.31,1-1.31,2,.12,2,1.31,2,1.33-1,1.33-2m2,3.78c0,1.84-1.38,3.18-3.54,3.18a3.84,3.84,0,0,1-2.92-1l1.25-1.21a2.09,2.09,0,0,0,1.58.59,1.48,1.48,0,0,0,1.62-1.59v-.78a2.42,2.42,0,0,1-1.92.76,2.75,2.75,0,0,1-1.91-.67c-.76-.73-.82-1.72-.82-3.06s.06-2.31.82-3a2.76,2.76,0,0,1,1.93-.68,2.42,2.42,0,0,1,2,.82v-.73h2v7.41m-10.48.28v-4.65a1.34,1.34,0,1,0-2.67,0v4.65h-2v-7.69h2v.71a2.84,2.84,0,0,1,2-.8,2.67,2.67,0,0,1,1.9.68,2.79,2.79,0,0,1,.82,2.19v4.91Zm-6.81,0h-2v-7.69h2Zm0-9h-2.06V132H661Zm-4.87,9a2.13,2.13,0,0,1-2.33-2.2v-3.81h-.85v-1.46h.85V132.8h2v2.27h1.43v1.46h-1.43v3.69a.61.61,0,0,0,.7.69h.73v1.63Zm-6.66-3.25h-1.59c-.73,0-1.13.33-1.13.87s.37.89,1.16.89a1.67,1.67,0,0,0,1.27-.37,1.24,1.24,0,0,0,.29-1Zm0,3.25v-.67a2.5,2.5,0,0,1-2,.74,2.79,2.79,0,0,1-2-.68,2.36,2.36,0,0,1-.67-1.72c0-1.23.88-2.23,2.75-2.23h1.9v-.38c0-.85-.43-1.21-1.5-1.21a1.75,1.75,0,0,0-1.54.63l-1.28-1.19a3.46,3.46,0,0,1,2.9-1.07c2.26,0,3.43.92,3.43,2.72v5.06Zm-8.41,0h-1.58l-3-7.69h2.12l1.64,4.75,1.62-4.75H644Zm-7.29-3.85a2.54,2.54,0,0,0-.46-1.86,1.35,1.35,0,0,0-1-.34,1.25,1.25,0,0,0-.92.34,2.5,2.5,0,0,0-.47,1.86,2.53,2.53,0,0,0,.47,1.87,1.25,1.25,0,0,0,.92.34,1.35,1.35,0,0,0,1-.34,2.58,2.58,0,0,0,.46-1.87m2,0a3.8,3.8,0,0,1-.91,3,3.45,3.45,0,0,1-2.51.95,3.36,3.36,0,0,1-2.48-.95,5.3,5.3,0,0,1,0-6,3.36,3.36,0,0,1,2.48-1,3.45,3.45,0,0,1,2.51,1,3.79,3.79,0,0,1,.91,3m-10.59,3.85v-4.65a1.34,1.34,0,1,0-2.67,0v4.65h-2v-7.69h2v.71a2.84,2.84,0,0,1,2-.8,2.67,2.67,0,0,1,1.9.68,2.79,2.79,0,0,1,.82,2.19v4.91Zm-8.78,0v-4.65a1.34,1.34,0,1,0-2.67,0v4.65h-2v-7.69h2v.71a2.83,2.83,0,0,1,2-.8,2.68,2.68,0,0,1,1.9.68,2.78,2.78,0,0,1,.81,2.19v4.91Zm-7,0h-2.15V132h2.15Z" style="fill:#fff"></path><path d="M56.69,56.69v60.93h60.94V56.69ZM98.88,98.88H75.44V75.44H98.88Z" style="fill:#fff"></path><rect x="136.37" y="75.44" width="23.44" height="23.44" style="fill:#fff"></rect><path d="M178.56,56.69h33.95c12.46,0,18.15,8.31,18.15,15.9,0,5.47-2.1,9-7.75,12.29,7.12,2.63,11,7.37,11,14.69,0,8.76-6.36,18.05-21.35,18.05h-34Zm18.53,47.17h12.29c4.38,0,6.34-3.13,6.34-5.89a5.28,5.28,0,0,0-5.72-5H197.09Zm0-23.18H207c4.51,0,6.31-2.1,6.31-5.18,0-.72-.22-4.69-5-4.69H197.14Z" style="fill:#fff"></path><path d="M253.21,56.69h19.62l22.36,60.86H275l-3-9.12h-18.8l-2.5,9.07h-20Zm9,18.06L257,95.07h11.08Z" style="fill:#fff"></path><path d="M326.5,74.79h18.72c0-10.33-7.78-19.92-26.22-19.92-20.24,0-26.5,11.17-26.5,19.34,0,13.18,16.13,16.68,16.62,16.84,2.41.76,12.42,3.44,14.92,4.33,2.17.78,4.24,2.51,4.24,4.83,0,3.55-4.24,5.26-7.77,5.26-2.26,0-9.87-.75-9.87-8.82H291.3c0,10.72,7.37,22.71,28.05,22.71,22.83,0,27.6-13.61,27.6-20.85,0-5.91-3.34-12.46-11.07-15.58-4.65-1.88-12.35-3.52-16.21-4.65-1.95-.58-8.45-1.89-8.45-5.86,0-5.07,8.37-4.42,7.15-4.42C322.15,68,326.5,70.13,326.5,74.79Z" style="fill:#fff"></path><polygon points="350.13 56.68 396.85 56.68 396.85 72.76 368.8 72.76 368.8 83.48 393.81 83.48 393.81 98.85 368.71 98.85 368.71 117.61 350.04 117.61 350.13 56.68" style="fill:#fff"></polygon><polygon points="81.01 165.83 80.99 165.75 75.15 143.8 71.48 143.8 65.55 165.83 65.32 165.83 65.3 165.75 60.12 143.8 56.74 143.8 63.47 170.08 66.99 170.08 73.11 147.83 73.34 147.83 73.36 147.9 79.38 170.08 82.9 170.08 89.93 143.8 86.61 143.8 81.24 165.83 81.01 165.83" style="fill:#fff"></polygon><path d="M105.47,154.36a8.48,8.48,0,0,0-2.67-2.66,7.84,7.84,0,0,0-4.19-1,8.62,8.62,0,0,0-3.58.74,8.43,8.43,0,0,0-2.82,2,9.43,9.43,0,0,0-1.85,3.12,11.44,11.44,0,0,0-.67,4,15.16,15.16,0,0,0,.65,4A8.77,8.77,0,0,0,92,167.7a7.63,7.63,0,0,0,2.81,2.05,9.69,9.69,0,0,0,3.94.74,8.68,8.68,0,0,0,5.35-1.61,7.56,7.56,0,0,0,2.72-4.68H104a4.57,4.57,0,0,1-1.71,2.8,5.55,5.55,0,0,1-3.34.94,6.68,6.68,0,0,1-2.75-.52,5.4,5.4,0,0,1-3-3.46,8,8,0,0,1-.3-2.42v-.1h14.36a15.88,15.88,0,0,0-.32-3.55,10.65,10.65,0,0,0-1.4-3.53m-12.65,4.5v-.11a6.83,6.83,0,0,1,.49-2.13,5.92,5.92,0,0,1,1.13-1.75,5.35,5.35,0,0,1,1.72-1.19,5.61,5.61,0,0,1,2.25-.44,5.52,5.52,0,0,1,2.21.44,5.67,5.67,0,0,1,1.74,1.17,5.37,5.37,0,0,1,1.17,1.75,6.89,6.89,0,0,1,.51,2.15v.11Z" style="fill:#fff"></path><path d="M129.33,167.94a5.38,5.38,0,0,1-2.61-.6,5,5,0,0,1-1.78-1.61,7.3,7.3,0,0,1-1-2.27,11,11,0,0,1-.31-2.63,13.17,13.17,0,0,1,.3-2.82,7.31,7.31,0,0,1,1-2.43,5.21,5.21,0,0,1,1.87-1.7,6.11,6.11,0,0,1,2.91-.64,4.52,4.52,0,0,1,4.83,3.82h3.06a7.15,7.15,0,0,0-.86-2.79,6.45,6.45,0,0,0-1.77-2,7.37,7.37,0,0,0-2.49-1.19,11.38,11.38,0,0,0-3-.39,9.28,9.28,0,0,0-3.93.79,7.89,7.89,0,0,0-2.8,2.16,9.35,9.35,0,0,0-1.67,3.23,14.25,14.25,0,0,0-.55,4,12.8,12.8,0,0,0,.57,3.92,8.67,8.67,0,0,0,1.69,3.06,7.39,7.39,0,0,0,2.78,2,10,10,0,0,0,3.84.69,8.27,8.27,0,0,0,5.73-1.9,8.66,8.66,0,0,0,2.6-5.31h-3a5.61,5.61,0,0,1-1.63,3.42,5.3,5.3,0,0,1-3.72,1.25" style="fill:#fff"></path><path d="M147.35,151.69a8.62,8.62,0,0,0-2.91,3.4l0,.06h-.11v-4h-2.76v19h3v-8.43a13.24,13.24,0,0,1,.37-3.31,6.37,6.37,0,0,1,1.21-2.46,5.19,5.19,0,0,1,2.19-1.56,9,9,0,0,1,3.17-.52v-3.14h-.22a6.85,6.85,0,0,0-3.86,1" style="fill:#fff"></path><path d="M167.53,154.36a8.48,8.48,0,0,0-2.67-2.66,7.85,7.85,0,0,0-4.2-1,8.61,8.61,0,0,0-3.57.74,8.43,8.43,0,0,0-2.82,2,9.45,9.45,0,0,0-1.86,3.12,11.68,11.68,0,0,0-.66,4,15.16,15.16,0,0,0,.65,4,8.77,8.77,0,0,0,1.7,3.15,7.68,7.68,0,0,0,2.8,2.05,9.77,9.77,0,0,0,3.95.74,8.7,8.7,0,0,0,5.35-1.61,7.56,7.56,0,0,0,2.72-4.68H166a4.57,4.57,0,0,1-1.71,2.8,5.55,5.55,0,0,1-3.34.94,6.68,6.68,0,0,1-2.75-.52,5.4,5.4,0,0,1-3-3.46,7.73,7.73,0,0,1-.3-2.42v-.1h14.35a15.28,15.28,0,0,0-.31-3.55,10.65,10.65,0,0,0-1.4-3.53m-12.65,4.5v-.11a6.83,6.83,0,0,1,.49-2.13,5.72,5.72,0,0,1,1.13-1.75,5.24,5.24,0,0,1,1.72-1.19,5.61,5.61,0,0,1,2.25-.44,5.52,5.52,0,0,1,2.21.44,5.67,5.67,0,0,1,1.74,1.17,5.54,5.54,0,0,1,1.17,1.75,6.88,6.88,0,0,1,.5,2.15v.11Z" style="fill:#fff"></path><path d="M188.37,167.35a7.31,7.31,0,0,1-.13-1.66v-9.86a5.11,5.11,0,0,0-.62-2.66,4.34,4.34,0,0,0-1.63-1.58,6.65,6.65,0,0,0-2.28-.74,15.31,15.31,0,0,0-5.58.14,7.39,7.39,0,0,0-2.53,1.08,5.55,5.55,0,0,0-1.74,2,6.62,6.62,0,0,0-.73,2.86h3a3.33,3.33,0,0,1,1.49-2.87,6.88,6.88,0,0,1,3.39-.77,11.22,11.22,0,0,1,1.52.11,4.25,4.25,0,0,1,1.41.46,2.74,2.74,0,0,1,1,1,3.24,3.24,0,0,1,.41,1.72,1.84,1.84,0,0,1-.55,1.43,3.52,3.52,0,0,1-1.46.73,13.11,13.11,0,0,1-2.07.37c-.76.09-1.59.22-2.45.39s-1.61.33-2.39.55a6.75,6.75,0,0,0-2,1,4.71,4.71,0,0,0-1.44,1.65,5.61,5.61,0,0,0-.55,2.63,5.41,5.41,0,0,0,.5,2.42,4.36,4.36,0,0,0,1.34,1.63,5.45,5.45,0,0,0,2,.91,10.52,10.52,0,0,0,2.43.27,10,10,0,0,0,3.69-.67,7.55,7.55,0,0,0,3-2.22l.18-.21v.28a2.91,2.91,0,0,0,.69,2.17,2.6,2.6,0,0,0,1.87.65,4.54,4.54,0,0,0,2.17-.43V167.8a3.33,3.33,0,0,1-.87.14c-.54,0-.87-.2-1-.59m-3.08-3.84A3.63,3.63,0,0,1,185,165a4.46,4.46,0,0,1-1.06,1.45,6,6,0,0,1-1.85,1.09,7.55,7.55,0,0,1-2.71.43,6.62,6.62,0,0,1-1.41-.15,3.27,3.27,0,0,1-1.22-.5,2.72,2.72,0,0,1-.85-.9,2.65,2.65,0,0,1-.33-1.37,3.08,3.08,0,0,1,.56-1.93,3.62,3.62,0,0,1,1.43-1.09,7.94,7.94,0,0,1,2-.54c.68-.11,1.4-.21,2.14-.3s1.38-.2,2-.33a4,4,0,0,0,1.52-.63l.16-.13Z" style="fill:#fff"></path><path d="M219.29,154.36a8.48,8.48,0,0,0-2.67-2.66,7.85,7.85,0,0,0-4.2-1,8.58,8.58,0,0,0-3.57.74,8.23,8.23,0,0,0-2.82,2,9.28,9.28,0,0,0-1.86,3.12,11.68,11.68,0,0,0-.66,4,15.36,15.36,0,0,0,.65,4,8.77,8.77,0,0,0,1.7,3.15,7.68,7.68,0,0,0,2.8,2.05,9.77,9.77,0,0,0,4,.74,8.7,8.7,0,0,0,5.35-1.61,7.61,7.61,0,0,0,2.72-4.68h-2.91a4.57,4.57,0,0,1-1.71,2.8,5.55,5.55,0,0,1-3.34.94,6.65,6.65,0,0,1-2.75-.52A5.6,5.6,0,0,1,208,166a5.51,5.51,0,0,1-1.09-2,7.45,7.45,0,0,1-.3-2.42v-.1H221a15.66,15.66,0,0,0-.31-3.55,10.74,10.74,0,0,0-1.4-3.53m-12.58,4.5v-.11a7,7,0,0,1,.49-2.13,5.75,5.75,0,0,1,1.14-1.75,5.14,5.14,0,0,1,1.72-1.19,5.56,5.56,0,0,1,2.24-.44,5.48,5.48,0,0,1,2.21.44,5.43,5.43,0,0,1,2.91,2.92,6.57,6.57,0,0,1,.51,2.15v.11Z" style="fill:#fff"></path><path d="M243.19,167.94a5.35,5.35,0,0,1-2.61-.6,5.2,5.2,0,0,1-1.78-1.61,7.09,7.09,0,0,1-1-2.27,10.94,10.94,0,0,1-.31-2.63,13.17,13.17,0,0,1,.3-2.82,7.09,7.09,0,0,1,1-2.42,5.31,5.31,0,0,1,1.87-1.71,6.11,6.11,0,0,1,2.91-.64,4.52,4.52,0,0,1,4.83,3.82h3.07a7.61,7.61,0,0,0-.87-2.8,6.52,6.52,0,0,0-1.77-2,7.46,7.46,0,0,0-2.49-1.19,11.38,11.38,0,0,0-3-.39,9.28,9.28,0,0,0-3.93.79,7.81,7.81,0,0,0-2.8,2.16,9.35,9.35,0,0,0-1.67,3.23,14.2,14.2,0,0,0-.55,4,12.8,12.8,0,0,0,.57,3.92,8.58,8.58,0,0,0,1.69,3.06,7.39,7.39,0,0,0,2.78,2,10,10,0,0,0,3.83.69,8.26,8.26,0,0,0,5.74-1.9,8.66,8.66,0,0,0,2.6-5.31h-3a5.56,5.56,0,0,1-1.63,3.42,5.28,5.28,0,0,1-3.72,1.25" style="fill:#fff"></path><path d="M269.77,152.59a5.07,5.07,0,0,0-2-1.41,8.3,8.3,0,0,0-3.12-.52,9,9,0,0,0-1.74.19,7.37,7.37,0,0,0-1.72.56,5.75,5.75,0,0,0-1.47,1,4.26,4.26,0,0,0-1.12,1.46l0,.07h-.14V143.8h-3v26.28h3V159.35a7.82,7.82,0,0,1,.36-2.42,5.54,5.54,0,0,1,1.08-2,4.9,4.9,0,0,1,1.79-1.29,6.6,6.6,0,0,1,2.55-.45,3.69,3.69,0,0,1,4,4v12.88h2.95V157.57a11.68,11.68,0,0,0-.31-2.81,5.39,5.39,0,0,0-1.07-2.17" style="fill:#fff"></path><path d="M290.94,154.36a8.41,8.41,0,0,0-2.68-2.66,7.79,7.79,0,0,0-4.19-1,8.66,8.66,0,0,0-3.58.74,8.43,8.43,0,0,0-2.82,2,9.43,9.43,0,0,0-1.85,3.12,11.48,11.48,0,0,0-.66,4,15.3,15.3,0,0,0,.64,4,8.64,8.64,0,0,0,1.71,3.15,7.71,7.71,0,0,0,2.8,2.05,9.75,9.75,0,0,0,3.94.74,8.73,8.73,0,0,0,5.36-1.61,7.57,7.57,0,0,0,2.71-4.68h-2.9a4.62,4.62,0,0,1-1.71,2.8,5.57,5.57,0,0,1-3.34.94,6.65,6.65,0,0,1-2.75-.52,5.33,5.33,0,0,1-3-3.46,7.73,7.73,0,0,1-.31-2.42v-.1h14.35a15.22,15.22,0,0,0-.32-3.55,10.72,10.72,0,0,0-1.39-3.53m-12.66,4.5v-.11a7,7,0,0,1,.49-2.13,5.75,5.75,0,0,1,1.14-1.75,5.14,5.14,0,0,1,1.72-1.19,5.53,5.53,0,0,1,2.24-.44,5.45,5.45,0,0,1,2.21.44A5.43,5.43,0,0,1,289,156.6a6.63,6.63,0,0,1,.51,2.15v.11Z" style="fill:#fff"></path><path d="M321.4,151.94a5.27,5.27,0,0,0-2-1,10.25,10.25,0,0,0-2.58-.31,7.18,7.18,0,0,0-3.42.84,6.49,6.49,0,0,0-2.5,2.38l-.12.18-.07-.2a4,4,0,0,0-2-2.47,7,7,0,0,0-3.18-.73,7.09,7.09,0,0,0-6.22,3.22l0,.05h-.11v-2.82h-2.77v19h2.95V158.24a4.53,4.53,0,0,1,.28-1.42,5.62,5.62,0,0,1,.91-1.65,5.52,5.52,0,0,1,1.63-1.36,4.76,4.76,0,0,1,2.4-.57,4.29,4.29,0,0,1,1.8.33,2.74,2.74,0,0,1,1.14.92,3.7,3.7,0,0,1,.59,1.39,8.39,8.39,0,0,1,.17,1.73v12.47h2.95V158.24a4.94,4.94,0,0,1,1.36-3.63,5.09,5.09,0,0,1,3.75-1.37,4.77,4.77,0,0,1,1.91.34,2.91,2.91,0,0,1,1.17.95,3.46,3.46,0,0,1,.57,1.39,9.15,9.15,0,0,1,.16,1.69v12.47h2.95v-14a6.32,6.32,0,0,0-.46-2.51,4.38,4.38,0,0,0-1.27-1.68" style="fill:#fff"></path><path d="M331.24,147.46h-2.95V143.8h2.95Zm0,3.65h-2.95v19h2.95Z" style="fill:#fff"></path><path d="M348.88,169.24a5.55,5.55,0,0,0,1.85-1.82,5.27,5.27,0,0,0,.71-2.84,4.46,4.46,0,0,0-.52-2.25,4.72,4.72,0,0,0-1.38-1.5,7.32,7.32,0,0,0-2-1,23.68,23.68,0,0,0-2.31-.62c-.74-.18-1.48-.34-2.22-.5a14.35,14.35,0,0,1-2-.6,5,5,0,0,1-1.5-.91,1.89,1.89,0,0,1-.6-1.43,2,2,0,0,1,.39-1.27,2.68,2.68,0,0,1,1-.77,5,5,0,0,1,1.34-.4,8,8,0,0,1,3,.06,4.77,4.77,0,0,1,1.42.55,3.23,3.23,0,0,1,1.07,1,3.37,3.37,0,0,1,.49,1.5h2.95a6.77,6.77,0,0,0-.72-2.76,4.92,4.92,0,0,0-1.65-1.82,6.9,6.9,0,0,0-2.4-.95,15.24,15.24,0,0,0-3-.28,11,11,0,0,0-2.52.31,7.58,7.58,0,0,0-2.27,1,5.38,5.38,0,0,0-1.64,1.65,4.51,4.51,0,0,0-.63,2.43,4.16,4.16,0,0,0,.9,2.83,6.24,6.24,0,0,0,2.28,1.59,15.78,15.78,0,0,0,3,.88c1.07.21,2.09.44,3,.71a7.79,7.79,0,0,1,2.34,1,2.2,2.2,0,0,1,1,1.94,2.42,2.42,0,0,1-.47,1.52,3,3,0,0,1-1.17.91,5.64,5.64,0,0,1-1.53.41,10.2,10.2,0,0,1-3.46-.07,5.67,5.67,0,0,1-1.67-.63,3.47,3.47,0,0,1-1.2-1.18,3.54,3.54,0,0,1-.49-1.71h-2.95a6.85,6.85,0,0,0,.72,2.87,5.65,5.65,0,0,0,1.75,2,7.41,7.41,0,0,0,2.52,1.07,14.53,14.53,0,0,0,5.92.06,8,8,0,0,0,2.6-1" style="fill:#fff"></path><path d="M359.43,145.36h-2.95v5.75h-3.15v2.58h3.15V166a7.19,7.19,0,0,0,.26,2.12,2.49,2.49,0,0,0,.77,1.21,2.89,2.89,0,0,0,1.36.59,11.15,11.15,0,0,0,2.07.17h2.31V167.5h-1.34a10.08,10.08,0,0,1-1.22-.06,1.63,1.63,0,0,1-.77-.26,1,1,0,0,1-.39-.57,3.67,3.67,0,0,1-.1-.92v-12h3.94v-2.58h-3.94Z" style="fill:#fff"></path><path d="M197.51,145.36h-3v5.75h-3.14v2.58h3.14V166a7.19,7.19,0,0,0,.26,2.12,2.56,2.56,0,0,0,.77,1.21,2.93,2.93,0,0,0,1.36.59,11.19,11.19,0,0,0,2.08.17h2.31V167.5H200a10.2,10.2,0,0,1-1.22-.06,1.63,1.63,0,0,1-.77-.26,1,1,0,0,1-.39-.57,3.74,3.74,0,0,1-.09-.92v-12h3.93v-2.58h-3.93Z" style="fill:#fff"></path><path d="M370.69,155.32l0,.06h-.1v-4.27h-2.77v19h2.95v-8.2a13.72,13.72,0,0,1,.37-3.31,6.37,6.37,0,0,1,1.21-2.46,5.19,5.19,0,0,1,2.19-1.56,9,9,0,0,1,3.17-.52v-3.14a7,7,0,0,0-4.07,1,8.66,8.66,0,0,0-2.92,3.41" style="fill:#fff"></path><path d="M387.43,175a20.24,20.24,0,0,0,1.08-2.37l8.3-21.55h-3.12l-5.38,15.69h-.22l0-.08-5.58-15.61h-3.33l7.56,19,0,0-1.3,3.22a3.81,3.81,0,0,1-1.07,1.34,2.62,2.62,0,0,1-1.62.47,3,3,0,0,1-1-.16l-.77-.25v2.68a4.75,4.75,0,0,0,1,.23,8,8,0,0,0,1.1.08,5.77,5.77,0,0,0,1.82-.27,4.27,4.27,0,0,0,1.39-.87,6.48,6.48,0,0,0,1.17-1.55" style="fill:#fff"></path></svg> 